HIERARCHY
ROOT Hips
{
    OFFSET 0.000000 0.000000 0.000000
    CHANNELS 6 Xposition Yposition Zposition Zrotation Xrotation Yrotation
    JOINT Spine
    {
        OFFSET -0.000000 14.517291 0.000000
        CHANNELS 3 Zrotation Xrotation Yrotation
        JOINT Spine1
        {
            OFFSET -0.000000 37.558300 0.000000
            CHANNELS 3 Zrotation Xrotation Yrotation
            JOINT Neck
            {
                OFFSET -0.000000 37.404057 3.400369
                CHANNELS 3 Zrotation Xrotation Yrotation
                JOINT Head
                {
                    OFFSET -0.000000 24.785618 -3.540803
                    CHANNELS 3 Zrotation Xrotation Yrotation
                    End Site
                    {
                        OFFSET -0.000000 35.408028 0.000000
                    }
                }
            }
            JOINT LeftShoulder
            {
                OFFSET 6.992933 33.973492 -0.192664
                CHANNELS 3 Zrotation Xrotation Yrotation
                JOINT LeftArm
                {
                    OFFSET 21.527611 0.000000 0.000000
                    CHANNELS 3 Zrotation Xrotation Yrotation
                    JOINT LeftForeArm
                    {
                        OFFSET 56.353916 0.000000 0.000000
                        CHANNELS 3 Zrotation Xrotation Yrotation
                        JOINT LeftHand
                        {
                            OFFSET 47.774071 0.000000 0.000000
                            CHANNELS 3 Zrotation Xrotation Yrotation
                            End Site
                            {
                                OFFSET 26.556021 0.000000 0.000000
                            }
                        }
                    }
                }
            }
            JOINT RightShoulder
            {
                OFFSET -7.065357 33.973492 -0.192664
                CHANNELS 3 Zrotation Xrotation Yrotation
                JOINT RightArm
                {
                    OFFSET -21.527611 0.000000 0.000000
                    CHANNELS 3 Zrotation Xrotation Yrotation
                    JOINT RightForeArm
                    {
                        OFFSET -56.353916 0.000000 0.000000
                        CHANNELS 3 Zrotation Xrotation Yrotation
                        JOINT RightHand
                        {
                            OFFSET -47.774071 0.000000 0.000000
                            CHANNELS 3 Zrotation Xrotation Yrotation
                            End Site
                            {
                                OFFSET -26.556021 0.000000 0.000000
                            }
                        }
                    }
                }
            }
        }
    }
    JOINT LeftUpLeg
    {
        OFFSET 17.704014 0.000000 0.000000
        CHANNELS 3 Zrotation Xrotation Yrotation
        JOINT LeftLeg
        {
            OFFSET -0.000000 -81.181816 0.000000
            CHANNELS 3 Zrotation Xrotation Yrotation
            JOINT LeftFoot
            {
                OFFSET -0.000000 -62.821102 0.000000
                CHANNELS 3 Zrotation Xrotation Yrotation
                JOINT LeftToeBase
                {
                    OFFSET -0.000000 -11.507608 26.556021
                    CHANNELS 3 Zrotation Xrotation Yrotation
                    End Site
                    {
                        OFFSET -0.000000 0.000000 7.081605
                    }
                }
            }
        }
    }
    JOINT RightUpLeg
    {
        OFFSET -17.704014 0.000000 0.000000
        CHANNELS 3 Zrotation Xrotation Yrotation
        JOINT RightLeg
        {
            OFFSET -0.000000 -81.181816 0.000000
            CHANNELS 3 Zrotation Xrotation Yrotation
            JOINT RightFoot
            {
                OFFSET -0.000000 -62.821102 0.000000
                CHANNELS 3 Zrotation Xrotation Yrotation
                JOINT RightToeBase
                {
                    OFFSET -0.000000 -11.507608 26.556021
                    CHANNELS 3 Zrotation Xrotation Yrotation
                    End Site
                    {
                        OFFSET -0.000000 0.000000 7.081605
                    }
                }
            }
        }
    }
}
MOTION
Frames:    5
Frame Time:    0.008333
11.414017    154.910660    -119.731834    -0.953002    -6.470134    43.636707    -1.445433    -2.893622    -2.319490    -4.714987    3.423436    -0.622283    -4.489233    -1.105202    -20.926466    21.173424    7.560197    -19.598421    19.161163    -12.088806    -28.425135    -14.523683    -6.317568    -66.986214    -10.659714    20.568039    -97.726631    2.356546    8.226374    -23.201851    -19.038231    -9.816927    0.502559    32.104748    -22.176731    82.461510    3.448052    -4.289359    20.005497    -4.329317    -6.028966    29.449854    20.267141    -3.945822    0.625897    -14.014791    37.464359    -18.914545    3.998164    -28.233181    43.129135    0.000000    0.000000    0.000000    -16.400547    -16.954622    -13.972978    8.782278    21.896391    -15.918940    4.854490    10.770597    -13.817504    0.000000    0.000000    0.000000    
11.410093    154.905853    -119.746780    -0.950331    -6.468800    43.619228    -1.443923    -2.900652    -2.303654    -4.739848    3.436467    -0.615692    -4.461367    -1.095423    -20.925322    21.144865    7.544043    -19.601072    19.125450    -11.996967    -28.437313    -14.496897    -6.281423    -67.006691    -10.592892    20.420460    -97.688072    2.215036    8.186705    -23.076912    -19.032906    -9.822026    0.488184    32.086582    -22.150528    82.467560    3.414939    -4.300880    20.033506    -4.341963    -6.038082    29.431562    20.262753    -3.949596    0.638151    -14.017816    37.477505    -18.919930    4.027986    -28.220337    43.143089    0.000000    0.000000    0.000000    -16.399956    -16.960381    -13.978445    8.776860    21.885572    -15.924973    4.843927    10.783134    -13.801214    0.000000    0.000000    0.000000    
11.406127    154.900940    -119.761536    -0.953873    -6.470838    43.601986    -1.431095    -2.902318    -2.286461    -4.763767    3.431753    -0.609552    -4.469312    -1.089914    -20.932888    21.146940    7.568274    -19.612448    19.085831    -11.916596    -28.442951    -14.475769    -6.188547    -67.015434    -10.509366    20.232601    -97.648643    2.097706    8.118154    -23.016834    -19.030346    -9.822979    0.479812    32.098331    -22.134346    82.479996    3.409931    -4.298469    20.067989    -4.345456    -6.036571    29.426458    20.267502    -3.956154    0.627956    -14.043459    37.487110    -18.876684    4.032111    -28.221809    43.133961    0.000000    0.000000    0.000000    -16.394400    -16.971756    -13.982026    8.765412    21.890097    -15.886197    4.848300    10.785971    -13.804466    0.000000    0.000000    0.000000    
11.402067    154.897614    -119.771866    -0.955749    -6.477449    43.591667    -1.424524    -2.897797    -2.279189    -4.767800    3.421354    -0.607539    -4.490580    -1.077067    -20.940483    21.147671    7.589242    -19.621456    19.031235    -11.839636    -28.451077    -14.454348    -6.059553    -67.012657    -10.423372    19.999323    -97.620026    1.959313    8.006601    -22.937323    -19.049290    -9.818851    0.478016    32.105598    -22.118574    82.487427    3.403167    -4.304591    20.112942    -4.354632    -6.045095    29.422338    20.277317    -3.960818    0.626661    -14.064468    37.505077    -18.894499    4.070441    -28.212646    43.166901    0.000000    0.000000    0.000000    -16.387745    -16.967260    -13.967846    8.770900    21.875643    -15.883835    4.843436    10.787870    -13.802235    0.000000    0.000000    0.000000    
11.397561    154.892715    -119.782936    -0.964112    -6.478401    43.576141    -1.408396    -2.910213    -2.267819    -4.795957    3.418807    -0.603052    -4.488412    -1.057786    -20.940712    21.146399    7.598221    -19.624628    18.990091    -11.757603    -28.469088    -14.471671    -5.961816    -66.993645    -10.289339    19.842463    -97.539680    1.952123    8.010989    -23.123394    -19.039009    -9.810813    0.474350    32.087891    -22.094667    82.498009    3.377283    -4.309433    20.142351    -4.361207    -6.048675    29.439919    20.286989    -3.972532    0.623571    -14.089295    37.521172    -18.880091    4.078974    -28.225208    43.189407    0.000000    0.000000    0.000000    -16.376385    -16.974588    -13.978544    8.755404    21.866413    -15.859910    4.844795    10.787660    -13.787086    0.000000    0.000000    0.000000    
